<svg width="65.186" height="22.264" viewBox="0 0 65.186 22.264" xmlns="http://www.w3.org/2000/svg"><g id="svgGroup" stroke-linecap="round" fill-rule="evenodd" font-size="9pt" stroke="#000" stroke-width="0.25mm" fill="#fafafa" style="stroke:#000;stroke-width:0.25mm;fill:#fafafa"><path d="M 39.413 7.59 L 39.413 5.764 L 41.261 5.764 L 41.261 17.116 Q 41.261 18.205 40.794 19.146 Q 40.326 20.086 39.534 20.785 Q 38.742 21.483 37.73 21.874 Q 36.718 22.264 35.618 22.264 Q 34.474 22.264 33.407 21.753 Q 32.34 21.241 31.542 20.389 Q 30.745 19.536 30.393 18.48 L 32.087 17.71 Q 32.296 18.469 32.841 19.08 Q 33.385 19.69 34.116 20.048 A 3.423 3.423 0 0 0 35.378 20.396 A 3.286 3.286 0 0 0 35.618 20.405 Q 36.344 20.405 37.021 20.152 Q 37.697 19.899 38.241 19.454 Q 38.786 19.008 39.1 18.409 Q 39.413 17.809 39.413 17.116 L 39.413 14.927 Q 38.852 15.873 37.934 16.462 Q 37.015 17.05 35.794 17.05 Q 34.628 17.05 33.605 16.599 Q 32.582 16.148 31.812 15.351 Q 31.042 14.553 30.602 13.508 A 5.705 5.705 0 0 1 30.162 11.339 A 6.497 6.497 0 0 1 30.162 11.264 Q 30.162 10.065 30.602 9.015 Q 31.042 7.964 31.812 7.167 Q 32.582 6.369 33.605 5.918 Q 34.628 5.467 35.794 5.467 A 4.323 4.323 0 0 1 36.973 5.622 A 3.615 3.615 0 0 1 37.934 6.05 Q 38.852 6.633 39.413 7.59 Z M 60.126 14.223 L 63.228 5.764 L 65.186 5.764 L 59.169 22.264 L 57.211 22.264 L 59.202 16.764 L 55.253 5.764 L 57.277 5.764 L 60.126 14.223 Z M 28.842 9.922 L 28.842 16.764 L 26.994 16.764 L 26.994 10.329 A 2.952 2.952 0 0 0 26.746 9.117 A 2.871 2.871 0 0 0 26.587 8.811 Q 26.18 8.129 25.498 7.728 A 2.926 2.926 0 0 0 24.032 7.327 A 3.453 3.453 0 0 0 23.98 7.326 Q 23.155 7.326 22.467 7.728 Q 21.78 8.129 21.373 8.811 A 2.903 2.903 0 0 0 20.966 10.316 A 3.433 3.433 0 0 0 20.966 10.329 L 20.966 16.764 L 19.118 16.764 L 19.118 5.764 L 20.966 5.764 L 20.966 7.139 Q 21.549 6.369 22.44 5.913 Q 23.331 5.456 24.376 5.456 Q 25.608 5.456 26.625 6.056 Q 27.643 6.655 28.243 7.667 A 4.325 4.325 0 0 1 28.841 9.845 A 5.112 5.112 0 0 1 28.842 9.922 Z M 50.743 3.047 L 50.743 5.764 L 53.966 5.764 L 53.966 7.612 L 50.743 7.612 L 50.743 16.764 L 48.895 16.764 L 48.895 7.612 L 47.476 7.612 L 47.476 5.764 L 48.895 5.764 L 48.895 3.047 A 2.988 2.988 0 0 1 49.122 1.878 A 2.869 2.869 0 0 1 49.308 1.513 Q 49.72 0.825 50.418 0.413 Q 51.117 0 51.953 0 Q 52.569 0 53.152 0.248 Q 53.735 0.495 54.186 0.979 L 52.866 2.288 Q 52.712 2.079 52.465 1.964 Q 52.217 1.848 51.953 1.848 A 1.172 1.172 0 0 0 51.106 2.195 A 1.439 1.439 0 0 0 51.101 2.2 A 1.173 1.173 0 0 0 50.802 2.668 A 1.193 1.193 0 0 0 50.743 3.047 Z M 5.093 16.764 L 0 16.764 L 0 1.364 L 5.093 1.364 Q 6.688 1.364 8.085 1.964 Q 9.482 2.563 10.538 3.625 Q 11.594 4.686 12.193 6.078 Q 12.793 7.469 12.793 9.064 Q 12.793 10.659 12.193 12.051 Q 11.594 13.442 10.538 14.504 Q 9.482 15.565 8.085 16.165 Q 6.688 16.764 5.093 16.764 Z M 1.848 3.212 L 1.848 14.916 L 5.093 14.916 Q 6.303 14.916 7.365 14.46 Q 8.426 14.003 9.229 13.2 Q 10.032 12.397 10.488 11.336 Q 10.945 10.274 10.945 9.064 Q 10.945 7.854 10.488 6.793 Q 10.032 5.731 9.224 4.928 Q 8.415 4.125 7.359 3.669 Q 6.303 3.212 5.093 3.212 L 1.848 3.212 Z M 14.674 16.764 L 14.674 5.764 L 16.522 5.764 L 16.522 16.764 L 14.674 16.764 Z M 43.758 16.764 L 43.758 5.764 L 45.606 5.764 L 45.606 16.764 L 43.758 16.764 Z M 35.805 15.257 A 3.481 3.481 0 0 0 36.816 15.115 A 2.947 2.947 0 0 0 37.659 14.707 Q 38.445 14.157 38.874 13.244 A 4.582 4.582 0 0 0 39.303 11.331 A 5.274 5.274 0 0 0 39.303 11.264 A 4.833 4.833 0 0 0 39.125 9.934 A 4.284 4.284 0 0 0 38.869 9.257 A 3.677 3.677 0 0 0 37.89 7.988 A 3.604 3.604 0 0 0 37.647 7.805 Q 36.861 7.26 35.805 7.26 Q 34.771 7.26 33.913 7.799 Q 33.055 8.338 32.554 9.246 A 4.06 4.06 0 0 0 32.058 11.058 A 4.81 4.81 0 0 0 32.054 11.264 A 4.163 4.163 0 0 0 32.307 12.726 A 3.896 3.896 0 0 0 32.565 13.283 Q 33.077 14.19 33.93 14.724 Q 34.782 15.257 35.805 15.257 Z M 15.62 3.971 Q 15.18 3.971 14.883 3.685 A 0.947 0.947 0 0 1 14.586 2.997 A 1.22 1.22 0 0 1 14.586 2.97 A 1.016 1.016 0 0 1 14.66 2.578 A 0.95 0.95 0 0 1 14.883 2.255 Q 15.18 1.969 15.609 1.969 Q 16.038 1.969 16.335 2.255 A 0.947 0.947 0 0 1 16.632 2.943 A 1.22 1.22 0 0 1 16.632 2.97 A 1.037 1.037 0 0 1 16.564 3.352 A 0.949 0.949 0 0 1 16.341 3.685 A 0.986 0.986 0 0 1 15.633 3.971 A 1.274 1.274 0 0 1 15.62 3.971 Z M 44.704 3.971 Q 44.264 3.971 43.967 3.685 A 0.947 0.947 0 0 1 43.67 2.997 A 1.22 1.22 0 0 1 43.67 2.97 A 1.016 1.016 0 0 1 43.744 2.578 A 0.95 0.95 0 0 1 43.967 2.255 Q 44.264 1.969 44.693 1.969 Q 45.122 1.969 45.419 2.255 A 0.947 0.947 0 0 1 45.716 2.943 A 1.22 1.22 0 0 1 45.716 2.97 A 1.037 1.037 0 0 1 45.648 3.352 A 0.949 0.949 0 0 1 45.425 3.685 A 0.986 0.986 0 0 1 44.717 3.971 A 1.274 1.274 0 0 1 44.704 3.971 Z" vector-effect="non-scaling-stroke"/></g></svg>